<svg xmlns="http://www.w3.org/2000/svg" version="1.1" xmlns:xlink="http://www.w3.org/1999/xlink" xmlns:svgjs="http://svgjs.dev/svgjs" width="2000" height="651" viewBox="0 0 2000 651"><g transform="matrix(1,0,0,1,-1.2121212121212466,-1.8099153019227288)"><svg viewBox="0 0 396 129" data-background-color="#0e2238" preserveAspectRatio="xMidYMid meet" height="651" width="2000" xmlns="http://www.w3.org/2000/svg" xmlns:xlink="http://www.w3.org/1999/xlink"><g id="tight-bounds" transform="matrix(1,0,0,1,0.2400000000000091,0.3586468109800762)"><svg viewBox="0 0 395.52 128.28270637803985" height="128.28270637803985" width="395.52"><g><svg viewBox="0 0 678.4349442155554 220.04316025840905" height="128.28270637803985" width="395.52"><g transform="matrix(1,0,0,1,282.91494421555547,43.44155509791541)"><svg viewBox="0 0 395.52 133.16005006257822" height="133.16005006257822" width="395.52"><g id="textblocktransform"><svg viewBox="0 0 395.52 133.16005006257822" height="133.16005006257822" width="395.52" id="textblock"><g><svg viewBox="0 0 395.52 133.16005006257822" height="133.16005006257822" width="395.52"><g transform="matrix(1,0,0,1,0,0)"><svg width="395.52" viewBox="2.1499999999999995 -40.8 159.78 53.8" height="133.16005006257822" data-palette-color="#ffffff"><path d="M2.6-39.95L2.6-39.95Q5.15-39.95 9.95-40.15 14.75-40.35 16.3-40.35L16.3-40.35 17.65-40.35Q24.2-40.35 27.4-37.68 30.6-35 30.6-30.65L30.6-30.65Q30.6-24.45 22.5-22.05L22.5-22.05 22.5-21.9Q27.2-21.2 29.93-18.23 32.65-15.25 32.65-11.1L32.65-11.1Q32.65-5.55 28.88-2.45 25.1 0.65 17.8 0.65L17.8 0.65Q15.8 0.65 11.33 0.33 6.85 0 4.2 0L4.2 0Q3.9 0 3.25 0.03 2.6 0.05 2.3 0.05L2.3 0.05Q2-0.85 2.3-1.75L2.3-1.75 6.45-2.3Q6.65-4.2 6.65-8.15L6.65-8.15 6.65-37.6 2.6-38.1Q2.4-38.85 2.6-39.95ZM16-20.3L16-20.3 12-20.3 12-2.2Q14.55-1.75 16.05-1.65L16.05-1.65Q22.1-1.65 24.4-3.93 26.7-6.2 26.7-11.05L26.7-11.05Q26.7-14.95 23.88-17.63 21.05-20.3 16-20.3ZM16.35-38.25L16.35-38.25Q13.85-38.25 12.2-37.9L12.2-37.9Q12-36 12-31.65L12-31.65 12-22.8 15.9-22.8Q20.55-22.8 22.68-24.7 24.8-26.6 24.8-30.35L24.8-30.35Q24.8-34.15 22.48-36.2 20.15-38.25 16.35-38.25ZM45.75-26.7L45.75-26.7 45.65-21.55Q46.9-23.85 49.12-25.78 51.35-27.7 53.35-27.7L53.35-27.7Q54.9-27.7 56.1-27.35L56.1-27.35Q56.5-26.7 56.5-25.65L56.5-25.65Q56.5-24 55.8-22.35L55.8-22.35Q54-22.85 52.35-22.85L52.35-22.85Q48.25-22.85 45.6-18.85L45.6-18.85 45.5-10.1 45.5-2.55 51.05-1.8Q51.25-1 51.05 0.2L51.05 0.2Q47.9 0.05 43.85 0.05L43.85 0.05Q40.8 0.05 36.6 0.15L36.6 0.15Q36.3-0.8 36.6-1.8L36.6-1.8 40.55-2.35Q40.75-5.1 40.75-8.7L40.75-8.7 40.75-22.4Q40.75-23.4 40.6-24.25L40.6-24.25 36.65-24.75Q36.45-25.5 36.65-26.65L36.65-26.65Q40.1-26.9 45.25-27.7L45.25-27.7Q45.7-27.2 45.75-26.7ZM67.25-18.6L67.25-18.6 67.25-2.55 71.3-1.8Q71.34-1.55 71.37-1.35 71.4-1.15 71.4-0.9L71.4-0.9Q71.4-0.65 71.37-0.38 71.34-0.1 71.3 0.2L71.3 0.2Q68.15 0.05 64.84 0.05L64.84 0.05Q63.7 0.05 62.07 0.08 60.45 0.1 58.35 0.15L58.35 0.15Q58.2-0.3 58.2-0.8L58.2-0.8Q58.2-1.25 58.35-1.8L58.35-1.8 62.3-2.35Q62.4-3.75 62.45-5.33 62.5-6.9 62.5-8.7L62.5-8.7 62.5-19.35Q62.5-22.65 62.35-24.25L62.35-24.25 58.4-24.75Q58.3-25 58.3-25.6L58.3-25.6Q58.3-25.85 58.3-26.1 58.3-26.35 58.4-26.65L58.4-26.65Q61.8-26.85 67-27.7L67-27.7Q67.45-27.2 67.5-26.7L67.5-26.7Q67.25-25.3 67.25-18.6ZM59.95-36.45L59.95-36.45Q59.85-36.7 59.85-36.98 59.85-37.25 59.85-37.5L59.85-37.5Q59.85-38.85 60.97-39.68 62.1-40.5 63.75-40.5L63.75-40.5Q65.3-40.5 66.27-39.58 67.25-38.65 67.25-37.05L67.25-37.05Q67.25-35.75 66.12-34.95 65-34.15 63.25-34.15L63.25-34.15Q62.05-34.15 61.12-34.75 60.2-35.35 59.95-36.45ZM95.39-14.1L95.39-14.1 79.69-14.1Q79.24-1.35 87.34-1.35L87.34-1.35Q90.79-1.35 94.39-4.4L94.39-4.4Q95.14-3.95 95.54-2.85L95.54-2.85Q92.09 1 86.79 1L86.79 1Q74.59 1 74.59-13.35L74.59-13.35Q74.59-20.15 78.19-23.93 81.79-27.7 86.59-27.7L86.59-27.7Q91.84-27.7 94.14-24.05 96.44-20.4 96.44-14.55L96.44-14.55Q95.94-14.15 95.39-14.1ZM86.49-25.7L86.49-25.7Q83.89-25.7 82.07-23 80.24-20.3 79.84-16.1L79.84-16.1 86.04-16.1Q89.74-16.1 91.34-16.55L91.34-16.55Q91.34-20.65 90.09-23.18 88.84-25.7 86.49-25.7ZM112.44-40.8L112.44-40.8Q119.89-40.8 119.89-34.9L119.89-34.9Q118.84-33.8 114.89-33.85L114.89-33.85Q114.39-39.1 112.34-39.1L112.34-39.1Q110.44-39.1 109.67-36.08 108.89-33.05 108.89-25.05L108.89-25.05 115.94-25.05Q116.24-24.1 115.94-23.1L115.94-23.1 108.89-22.05 108.89-2.8 114.94-1.8Q115.24-0.8 114.94 0.2L114.94 0.2Q111.79 0.05 107.19 0.05L107.19 0.05Q104.49 0.05 100.29 0.15L100.29 0.15Q99.89-0.75 100.29-1.8L100.29-1.8 103.94-2.6Q104.14-5.25 104.14-8.7L104.14-8.7 104.14-22.55 100.59-23.1Q100.29-24.1 100.59-25.05L100.59-25.05 104.14-25.05 104.14-28.45Q104.14-31.45 104.99-34.18 105.84-36.9 107.81-38.85 109.79-40.8 112.44-40.8ZM127.29-31.7L127.29-31.7 127.29-2.55 131.34-1.8Q131.54-1 131.34 0.2L131.34 0.2Q128.19 0.05 124.89 0.05L124.89 0.05Q122.59 0.05 118.39 0.15L118.39 0.15Q118.09-0.8 118.39-1.8L118.39-1.8 122.34-2.35Q122.54-5.1 122.54-8.7L122.54-8.7 122.54-37.35 118.44-37.85Q118.24-38.6 118.44-39.75L118.44-39.75Q121.89-40 127.04-40.8L127.04-40.8Q127.49-40.3 127.54-39.8L127.54-39.8Q127.29-38.5 127.29-31.7ZM142.48 7.4L142.48 7.4 145.69-0.15 135.98-24.05 132.08-24.85Q131.83-25.85 132.08-26.85L132.08-26.85Q134.83-26.65 138.78-26.65L138.78-26.65Q142.33-26.65 145.53-26.8L145.53-26.8Q145.83-25.8 145.53-24.85L145.53-24.85 141.23-24.15 145.98-12.9Q146.98-10.45 148.08-6.05L148.08-6.05 148.19-6.05Q149.03-9.05 150.53-12.65L150.53-12.65 154.88-24.3 150.98-24.85Q150.78-25.65 150.98-26.85L150.98-26.85Q153.73-26.65 156.33-26.65L156.33-26.65Q158.53-26.65 161.78-26.8L161.78-26.8Q162.08-25.8 161.78-24.85L161.78-24.85 157.83-24.3 144.63 8Q143.58 10.5 142.28 11.75 140.98 13 138.83 13L138.83 13Q137.13 13 136.21 12.58 135.28 12.15 134.33 10.95L134.33 10.95Q134.63 8.2 137.19 6.55L137.19 6.55Q139.23 8.85 140.69 8.85L140.69 8.85Q141.94 8.85 142.48 7.4Z" opacity="1" transform="matrix(1,0,0,1,0,0)" fill="#ffffff" class="wordmark-text-0" data-fill-palette-color="primary" id="text-0"></path></svg></g></svg></g></svg></g></svg></g><g><svg viewBox="0 0 220.04316025840905 220.04316025840905" height="220.04316025840905" width="220.04316025840905"><g><svg></svg></g><g id="icon-0"><svg viewBox="0 0 220.04316025840905 220.04316025840905" height="220.04316025840905" width="220.04316025840905"><g><path d="M0 110.022c0-60.763 49.258-110.022 110.022-110.022 60.763 0 110.022 49.258 110.021 110.022 0 60.763-49.258 110.022-110.021 110.021-60.763 0-110.022-49.258-110.022-110.021zM110.022 208.035c54.131 0 98.013-43.882 98.013-98.013 0-54.131-43.882-98.013-98.013-98.013-54.131 0-98.013 43.882-98.013 98.013 0 54.131 43.882 98.013 98.013 98.013z" data-fill-palette-color="accent" fill="#ffffff" stroke="transparent"></path></g><g transform="matrix(1,0,0,1,53.04120532288587,53.04120533564847)"><svg viewBox="0 0 113.9607496126373 113.9607495871121" height="113.9607495871121" width="113.9607496126373"><g><svg xmlns:x="http://ns.adobe.com/Extensibility/1.0/" xmlns:i="http://ns.adobe.com/AdobeIllustrator/10.0/" xmlns:graph="http://ns.adobe.com/Graphs/1.0/" xmlns="http://www.w3.org/2000/svg" xmlns:xlink="http://www.w3.org/1999/xlink" version="1.1" x="0" y="0" viewBox="6.999999988800889 7 50.00000001119911 50" enable-background="new 0 0 64 64" xml:space="preserve" height="113.9607495871121" width="113.9607496126373" class="icon-dxe-0" data-fill-palette-color="accent" id="dxe-0"><g fill="#b50ad0" data-fill-palette-color="accent"><g fill="#b50ad0" data-fill-palette-color="accent"><path d="M56.472 23.118A1 1 0 0 0 55.446 23.168L47 28.798V8A1 1 0 0 0 46 7H18A1 1 0 0 0 17 8V28.798L8.555 23.168A1 1 0 0 0 7 24V56A1 1 0 0 0 8 57H56A1 1 0 0 0 57 56V24A1 1 0 0 0 56.472 23.118M19 9H45V30.131L32 38.798 19 30.131zM55 55H9V25.869L31.445 40.832A0.995 0.995 0 0 0 32.554 40.832L55 25.869z" fill="#ffffff" data-fill-palette-color="accent"></path><path d="M26 17H38A1 1 0 1 0 38 15H26A1 1 0 0 0 26 17" fill="#ffffff" data-fill-palette-color="accent"></path><path d="M39 24A1 1 0 0 0 38 23H26A1 1 0 0 0 26 25H38A1 1 0 0 0 39 24" fill="#ffffff" data-fill-palette-color="accent"></path><path d="M35 32A1 1 0 0 0 34 31H30A1 1 0 0 0 30 33H34A1 1 0 0 0 35 32" fill="#ffffff" data-fill-palette-color="accent"></path></g></g></svg><g></g></g></svg></g></svg></g></svg></g></svg></g><defs></defs></svg><rect width="395.52" height="128.28270637803985" fill="none" stroke="none" visibility="hidden"></rect></g></svg></g></svg>